<?xml version="1.0" encoding="UTF-8"?>
<svg version="1.1" xmlns="http://www.w3.org/2000/svg" width="192" height="192">
<path d="M0 0 C21.19228158 17.29772666 33.74755333 39.71558629 37 67 C38.33233675 91.95569222 32.26511056 117.49785324 15.3125 136.5625 C13.88837883 138.054552 12.45285099 139.53590838 11 141 C10.175 141.86625 9.35 142.7325 8.5 143.625 C7.675 144.40875 6.85 145.1925 6 146 C5.42636719 146.58007812 4.85273438 147.16015625 4.26171875 147.7578125 C-0.24819406 152.08936718 -5.05522125 155.49305619 -10.4375 158.625 C-11.01411377 158.97272461 -11.59072754 159.32044922 -12.18481445 159.67871094 C-25.90398825 167.35072318 -39.86342441 169.98262989 -55.42333984 169.72729492 C-58.13147937 169.68740456 -60.83473937 169.70676188 -63.54296875 169.73242188 C-78.07324449 169.7274666 -90.85626646 166.94638398 -103.6875 159.875 C-104.73647461 159.30640259 -104.73647461 159.30640259 -105.80664062 158.72631836 C-127.37616624 146.5774846 -143.1930315 125.51954888 -150.25390625 101.9609375 C-156.75342903 78.10113476 -154.04587794 52.11532592 -142.01171875 30.49609375 C-141.66802246 29.89909668 -141.32432617 29.30209961 -140.97021484 28.68701172 C-140.1006872 27.17507512 -139.27575909 25.63769369 -138.45703125 24.09765625 C-126.57320277 3.29331899 -104.38422365 -10.70792579 -81.68652344 -16.9050293 C-53.42064061 -23.78844717 -22.99353956 -17.88046219 0 0 Z " fill="#4D7FC7" transform="translate(154,23)"/>
<path d="M0 0 C21.19228158 17.29772666 33.74755333 39.71558629 37 67 C38.33233675 91.95569222 32.26511056 117.49785324 15.3125 136.5625 C13.88837883 138.054552 12.45285099 139.53590838 11 141 C10.175 141.86625 9.35 142.7325 8.5 143.625 C7.675 144.40875 6.85 145.1925 6 146 C5.42636719 146.58007812 4.85273438 147.16015625 4.26171875 147.7578125 C-0.24819406 152.08936718 -5.05522125 155.49305619 -10.4375 158.625 C-11.01411377 158.97272461 -11.59072754 159.32044922 -12.18481445 159.67871094 C-25.90398825 167.35072318 -39.86342441 169.98262989 -55.42333984 169.72729492 C-58.13147937 169.68740456 -60.83473937 169.70676188 -63.54296875 169.73242188 C-78.07324449 169.7274666 -90.85626646 166.94638398 -103.6875 159.875 C-104.73647461 159.30640259 -104.73647461 159.30640259 -105.80664062 158.72631836 C-127.37616624 146.5774846 -143.1930315 125.51954888 -150.25390625 101.9609375 C-156.75342903 78.10113476 -154.04587794 52.11532592 -142.01171875 30.49609375 C-141.66802246 29.89909668 -141.32432617 29.30209961 -140.97021484 28.68701172 C-140.1006872 27.17507512 -139.27575909 25.63769369 -138.45703125 24.09765625 C-126.57320277 3.29331899 -104.38422365 -10.70792579 -81.68652344 -16.9050293 C-53.42064061 -23.78844717 -22.99353956 -17.88046219 0 0 Z M-87 -11 C-88.79244141 -10.36384766 -88.79244141 -10.36384766 -90.62109375 -9.71484375 C-113.42232798 -0.74918867 -130.44432116 16.75401519 -140.19091797 38.99804688 C-148.48199635 59.51308693 -149.2463749 84.36123224 -141 105 C-136.70595928 114.9334065 -131.3439148 124.01046632 -124 132 C-123.21367188 132.88945312 -122.42734375 133.77890625 -121.6171875 134.6953125 C-111.26287265 145.79142901 -98.49303013 153.5040537 -84 158 C-82.60587891 158.47566406 -82.60587891 158.47566406 -81.18359375 158.9609375 C-58.73999825 165.47585603 -34.10326445 161.02222976 -13.91455078 150.09863281 C7.21606423 137.97318426 21.44395676 117.87572749 28.375 94.8125 C32.46445957 78.53185965 31.60932512 59.77950338 26 44 C25.36384766 42.20755859 25.36384766 42.20755859 24.71484375 40.37890625 C15.71018069 17.47846788 -1.7827476 0.65650546 -24.04980469 -9.19091797 C-43.48562824 -17.25430295 -67.14207128 -18.05913081 -87 -11 Z " fill="#000000" transform="translate(154,23)"/>
<path d="M0 0 C0.721875 0.185625 1.44375 0.37125 2.1875 0.5625 C5.12826973 1.01995307 7.14103058 0.73516357 10 0 C10.33 0.66 10.66 1.32 11 2 C11.66 1.34 12.32 0.68 13 0 C16.24890907 -0.35314229 18.37896648 -0.27783078 21.375 1.0625 C23 3 23 3 23.5625 6.3125 C22.80882305 11.25327112 21.76448853 12.71608448 18 16 C14.3125 16.5625 14.3125 16.5625 11 16 C8.32072659 11.98108988 8.84398752 9.75838077 9 5 C7.01979579 5.44033992 7.01979579 5.44033992 5 7 C4.09913104 9.04395269 3.43280567 11.078624 2.80859375 13.22265625 C2.54175781 13.80917969 2.27492187 14.39570312 2 15 C1.01 15.33 0.02 15.66 -1 16 C-1.02725341 14.2709226 -1.04650987 12.54171824 -1.0625 10.8125 C-1.07410156 9.84957031 -1.08570313 8.88664062 -1.09765625 7.89453125 C-1.00486622 5.14423487 -0.62111685 2.67520409 0 0 Z " fill="#111A29" transform="translate(133,88)"/>
<path d="M0 0 C1.32 0 2.64 0 4 0 C4.33 0.99 4.66 1.98 5 3 C5.391875 2.484375 5.78375 1.96875 6.1875 1.4375 C6.785625 0.963125 7.38375 0.48875 8 0 C10.6875 0.3125 10.6875 0.3125 13 1 C13.61619487 9.81500987 13.61619487 9.81500987 11.375 14.125 C8.39433949 16.47815304 6.70679491 16.42122669 3 16 C3 17.98 3 19.96 3 22 C1.35 22 -0.3 22 -2 22 C-2.23576736 14.37685526 -1.83717315 7.41430591 0 0 Z " fill="#0E141C" transform="translate(100,88)"/>
<path d="M0 0 C1.32 0 2.64 0 4 0 C4.33 0.99 4.66 1.98 5 3 C5.391875 2.484375 5.78375 1.96875 6.1875 1.4375 C8 0 8 0 10.625 0.25 C13 1 13 1 14 2 C14.46712061 6.59335266 14.69742425 9.70962897 11.875 13.5 C9 16 9 16 5.6875 16.375 C4.800625 16.25125 3.91375 16.1275 3 16 C3 17.98 3 19.96 3 22 C1.68 22 0.36 22 -1 22 C-1.02716824 19.45826023 -1.04691969 16.91681585 -1.0625 14.375 C-1.07087891 13.66214844 -1.07925781 12.94929688 -1.08789062 12.21484375 C-1.10710296 8.02655562 -0.8267327 4.1271538 0 0 Z " fill="#05090F" transform="translate(158,88)"/>
<path d="M0 0 C1.32 0 2.64 0 4 0 C4 2.97 4 5.94 4 9 C6.64 9 9.28 9 12 9 C12 6.03 12 3.06 12 0 C13.32 0 14.64 0 16 0 C16.12109311 7.07721931 15.85373239 13.97195301 15 21 C13.0625 21.5625 13.0625 21.5625 11 22 C10.67 21.67 10.34 21.34 10 21 C10.08937803 19.47480724 10.24537146 17.95318071 10.4375 16.4375 C10.53933594 15.61121094 10.64117187 14.78492187 10.74609375 13.93359375 C10.82988281 13.29550781 10.91367188 12.65742187 11 12 C8.36 12 5.72 12 3 12 C3 15.3 3 18.6 3 22 C1.35 21.67 -0.3 21.34 -2 21 C-1.85845864 18.43719792 -1.71191438 15.87484515 -1.5625 13.3125 C-1.52318359 12.59126953 -1.48386719 11.87003906 -1.44335938 11.12695312 C-1.21814322 7.33292718 -0.87160695 3.71348508 0 0 Z " fill="#0F1217" transform="translate(61,82)"/>
<path d="M0 0 C9.51612903 -0.32258065 9.51612903 -0.32258065 13 2 C14.125 4.75 14.125 4.75 14 8 C11.875 11.375 11.875 11.375 9 14 C6.1875 14.375 6.1875 14.375 4 14 C3.34 16.64 2.68 19.28 2 22 C0.68 22 -0.64 22 -2 22 C-1.85811015 19.45805839 -1.71160845 16.91652007 -1.5625 14.375 C-1.52318359 13.66214844 -1.48386719 12.94929688 -1.44335938 12.21484375 C-1.19690319 8.08196318 -0.76529947 4.07730976 0 0 Z " fill="#090C11" transform="translate(117,82)"/>
<path d="M0 0 C0 1.32 0 2.64 0 4 C3.48670834 2.8905928 6.77484237 1.73662334 10 0 C10 1.32 10 2.64 10 4 C10.99 4 11.98 4 13 4 C13 4.66 13 5.32 13 6 C11.68 6 10.36 6 9 6 C8.67 8.97 8.34 11.94 8 15 C9.32 14.67 10.64 14.34 12 14 C11.125 17.875 11.125 17.875 10 19 C7.5 19.125 7.5 19.125 5 19 C4 18 4 18 3.8671875 16.0390625 C3.86976562 15.24242188 3.87234375 14.44578125 3.875 13.625 C3.87242188 12.83351563 3.86984375 12.04203125 3.8671875 11.2265625 C4 9 4 9 5 6 C3.02 6 1.04 6 -1 6 C-1.33 8.97 -1.66 11.94 -2 15 C-0.68 14.67 0.64 14.34 2 14 C1.125 17.875 1.125 17.875 0 19 C-2.5 19.125 -2.5 19.125 -5 19 C-6.92964064 17.07035936 -6.26230473 13.75274242 -6.3125 11.1875 C-6.34988281 9.94355469 -6.38726562 8.69960937 -6.42578125 7.41796875 C-6 4 -6 4 -4.10546875 1.55078125 C-2 0 -2 0 0 0 Z " fill="#0D1117" transform="translate(85,85)"/>
<path d="M0 0 C1.14597656 -0.01224609 2.29195313 -0.02449219 3.47265625 -0.03710938 C9.72201358 -0.04789653 15.14829192 0.32987452 21.125 2.1875 C20.795 2.8475 20.465 3.5075 20.125 4.1875 C19.19300781 4.043125 18.26101562 3.89875 17.30078125 3.75 C-7.6136942 0.12241207 -29.78676595 3.97586401 -50.875 18.1875 C-54.60095758 21.33664942 -57.99440155 24.73636874 -61.375 28.25 C-62.24125 29.12205078 -63.1075 29.99410156 -64 30.89257812 C-68.11436426 35.08630897 -71.88003939 39.12102497 -74.875 44.1875 C-75.205 43.5275 -75.535 42.8675 -75.875 42.1875 C-60.76395441 20.83578884 -42.42953779 5.66138592 -16.0703125 0.65478516 C-10.72723135 -0.12659147 -5.39087139 0.00301166 0 0 Z " fill="#6B92CA" transform="translate(95.875,7.8125)"/>
<path d="M0 0 C2.9375 0.4375 2.9375 0.4375 5.9375 2.4375 C5.6016593 5.54402645 5.34700721 7.04164303 3.0625 9.25 C0.9375 10.4375 0.9375 10.4375 -2.0625 10.4375 C-2.0625 11.0975 -2.0625 11.7575 -2.0625 12.4375 C1.4025 11.9425 1.4025 11.9425 4.9375 11.4375 C4.4375 13.375 4.4375 13.375 2.9375 15.4375 C0.24091548 16.12540422 -2.2642019 16.25696464 -5.0625 16.4375 C-7.53022206 12.7359169 -7.73079025 9.73126485 -7.0625 5.4375 C-5.06536433 1.75048031 -4.19133905 0.59876272 0 0 Z " fill="#101419" transform="translate(40.0625,87.5625)"/>
<path d="M0 0 C1.670625 0.061875 1.670625 0.061875 3.375 0.125 C3.705 1.445 4.035 2.765 4.375 4.125 C1.405 3.63 1.405 3.63 -1.625 3.125 C-1.625 3.785 -1.625 4.445 -1.625 5.125 C-0.820625 5.434375 -0.01625 5.74375 0.8125 6.0625 C3.375 7.125 3.375 7.125 4.375 8.125 C4.66756599 10.90437687 4.82553805 12.50461054 3.15234375 14.80859375 C1.375 16.125 1.375 16.125 -0.88671875 16.19921875 C-1.68722656 16.07160156 -2.48773438 15.94398437 -3.3125 15.8125 C-4.12074219 15.69261719 -4.92898437 15.57273437 -5.76171875 15.44921875 C-6.37660156 15.34222656 -6.99148437 15.23523438 -7.625 15.125 C-7.625 13.805 -7.625 12.485 -7.625 11.125 C-5.23935923 11.70084432 -2.95817216 12.34727595 -0.625 13.125 C-0.625 12.135 -0.625 11.145 -0.625 10.125 C-1.264375 9.815625 -1.90375 9.50625 -2.5625 9.1875 C-4.625 8.125 -4.625 8.125 -5.625 7.125 C-5.8125 4.6875 -5.8125 4.6875 -5.625 2.125 C-3.625 0.125 -3.625 0.125 0 0 Z " fill="#131921" transform="translate(27.625,87.875)"/>
<path d="M0 0 C5.75 0.75 5.75 0.75 8 3 C8.56298218 7.18215331 8.40535465 10.01984603 5.9375 13.4375 C3 16 3 16 -0.6875 16.5625 C-1.780625 16.376875 -2.87375 16.19125 -4 16 C-6.29013653 12.5647952 -6.17842973 11.014669 -6 7 C-5.01 6.67 -4.02 6.34 -3 6 C-2.34 8.31 -1.68 10.62 -1 13 C2.12606964 11.39519216 2.12606964 11.39519216 2.51171875 9.0546875 C2.56972656 8.33539063 2.62773437 7.61609375 2.6875 6.875 C2.790625 5.59625 2.89375 4.3175 3 3 C1.68 2.67 0.36 2.34 -1 2 C-0.67 1.34 -0.34 0.68 0 0 Z " fill="#080C13" transform="translate(148,88)"/>
<path d="M0 0 C0.886875 0.12375 1.77375 0.2475 2.6875 0.375 C3.0175 1.695 3.3475 3.015 3.6875 4.375 C1.6875 4.375 -0.3125 4.375 -2.3125 4.375 C-2.6425 6.685 -2.9725 8.995 -3.3125 11.375 C-1.3325 11.375 0.6475 11.375 2.6875 11.375 C2.125 13.3125 2.125 13.3125 0.6875 15.375 C-2.9375 16.125 -2.9375 16.125 -6.3125 16.375 C-8.82500583 12.60624125 -8.84266086 10.84349866 -8.3125 6.375 C-6.36422281 2.54533927 -4.41830625 0.50018561 0 0 Z " fill="#101319" transform="translate(54.3125,87.625)"/>
<path d="M0 0 C0.66 0.33 1.32 0.66 2 1 C1.67 4.96 1.34 8.92 1 13 C0.34 12.34 -0.32 11.68 -1 11 C-2.99958364 10.95919217 -5.00045254 10.95745644 -7 11 C-7.33 10.67 -7.66 10.34 -8 10 C-7.71269945 7.66055264 -7.38063221 5.3260857 -7 3 C-3.25 1.875 -3.25 1.875 -1 3 C-0.67 2.01 -0.34 1.02 0 0 Z " fill="#4B79BC" transform="translate(58,89)"/>
<path d="M0 0 C1.32 0 2.64 0 4 0 C5.27652168 5.57027642 5.06979385 10.00549413 2 15 C1.01 15.33 0.02 15.66 -1 16 C-1.02725341 14.2709226 -1.04650987 12.54171824 -1.0625 10.8125 C-1.07410156 9.84957031 -1.08570313 8.88664062 -1.09765625 7.89453125 C-1.00486622 5.14423487 -0.62111685 2.67520409 0 0 Z " fill="#070A0F" transform="translate(133,88)"/>
<path d="M0 0 C3.125 0.1875 3.125 0.1875 6.125 2.1875 C5.78430765 5.33890423 5.54423159 6.79531561 3.1875 9 C1.125 10.1875 1.125 10.1875 -0.875 10.1875 C-0.875 9.5275 -0.875 8.8675 -0.875 8.1875 C-1.535 8.1875 -2.195 8.1875 -2.875 8.1875 C-2.875 6.5375 -2.875 4.8875 -2.875 3.1875 C-3.865 3.8475 -4.855 4.5075 -5.875 5.1875 C-3.47456553 0.2266021 -3.47456553 0.2266021 0 0 Z " fill="#1D293B" transform="translate(39.875,87.8125)"/>
<path d="M0 0 C0.99 0.33 1.98 0.66 3 1 C2.56655273 1.42297363 2.13310547 1.84594727 1.68652344 2.28173828 C-0.29770403 4.22407533 -2.2738637 6.17443293 -4.25 8.125 C-5.27287109 9.12273438 -5.27287109 9.12273438 -6.31640625 10.140625 C-10.08234367 13.86999992 -13.25624679 17.46007844 -16 22 C-16.33 21.34 -16.66 20.68 -17 20 C-4.40398293 2.20199147 -4.40398293 2.20199147 0 0 Z " fill="#6189C3" transform="translate(37,30)"/>
<path d="M0 0 C1.98 0 3.96 0 6 0 C5.67 3.63 5.34 7.26 5 11 C4.34 11 3.68 11 3 11 C2.67 10.34 2.34 9.68 2 9 C1.01 9 0.02 9 -1 9 C-0.67 6.03 -0.34 3.06 0 0 Z " fill="#4673B3" transform="translate(84,91)"/>
<path d="M0 0 C0.33 0 0.66 0 1 0 C1.05422947 1.4370809 1.09289723 2.87475462 1.125 4.3125 C1.14820312 5.11300781 1.17140625 5.91351563 1.1953125 6.73828125 C1 9 1 9 -1 12 C-2.32 11.67 -3.64 11.34 -5 11 C-4.67 8.03 -4.34 5.06 -4 2 C-2.68 2 -1.36 2 0 2 C0 1.34 0 0.68 0 0 Z " fill="#4470AE" transform="translate(98,89)"/>
<path d="M0 0 C2.475 0.495 2.475 0.495 5 1 C5.05395478 2.62463842 5.09277195 4.24978541 5.125 5.875 C5.14820312 6.77992187 5.17140625 7.68484375 5.1953125 8.6171875 C5 11 5 11 3 13 C2.34 12.67 1.68 12.34 1 12 C0.5859375 9.27734375 0.5859375 9.27734375 0.375 5.9375 C0.30023438 4.83277344 0.22546875 3.72804688 0.1484375 2.58984375 C0.09945312 1.73519531 0.05046875 0.88054687 0 0 Z " fill="#0B0E14" transform="translate(108,88)"/>
<path d="M0 0 C0.99 0 1.98 0 3 0 C3 2.64 3 5.28 3 8 C1.02 8.99 1.02 8.99 -1 10 C-2.23076923 4.58461538 -2.23076923 4.58461538 -1.0625 1.625 C-0.5365625 0.820625 -0.5365625 0.820625 0 0 Z " fill="#4474B9" transform="translate(148,91)"/>
<path d="M0 0 C0.25 5.625 0.25 5.625 -2 9 C-3.32 8.67 -4.64 8.34 -6 8 C-5.62403791 5.21788056 -5.32681541 3.4120716 -3.5625 1.1875 C-2 0 -2 0 0 0 Z " fill="#3D68A7" transform="translate(168,92)"/>
<path d="M0 0 C1.65 0 3.3 0 5 0 C4.01 0.33 3.02 0.66 2 1 C1.67 6.28 1.34 11.56 1 17 C0.67 17 0.34 17 0 17 C-0.33 13.7 -0.66 10.4 -1 7 C-1.99 7 -2.98 7 -4 7 C-3.525625 6.401875 -3.05125 5.80375 -2.5625 5.1875 C-0.83534256 2.99617076 -0.83534256 2.99617076 0 0 Z " fill="#3B629B" transform="translate(131,87)"/>
<path d="M0 0 C1.32 0.33 2.64 0.66 4 1 C4.625 3.375 4.625 3.375 5 6 C4.34 6.66 3.68 7.32 3 8 C2.01 8 1.02 8 0 8 C0 5.36 0 2.72 0 0 Z " fill="#4573B5" transform="translate(121,85)"/>
<path d="M0 0 C0.125 6.75 0.125 6.75 -1 9 C-2.32 8.67 -3.64 8.34 -5 8 C-3.91891892 0 -3.91891892 0 0 0 Z " fill="#4878BC" transform="translate(109,92)"/>
<path d="M0 0 C0.66 0.33 1.32 0.66 2 1 C1.67 2.98 1.34 4.96 1 7 C-1.64 7 -4.28 7 -7 7 C-7 6.34 -7 5.68 -7 5 C-6.030625 4.54625 -5.06125 4.0925 -4.0625 3.625 C-0.92920418 2.34213779 -0.92920418 2.34213779 0 0 Z " fill="#4874B3" transform="translate(45,93)"/>
<path d="M0 0 C2.31 0.33 4.62 0.66 7 1 C7 3.64 7 6.28 7 9 C6.6596875 8.1028125 6.6596875 8.1028125 6.3125 7.1875 C4.66692986 4.4448831 2.72964203 3.58031907 0 2 C0 1.34 0 0.68 0 0 Z " fill="#4A75B5" transform="translate(26,91)"/>
<path d="M0 0 C0.66 0 1.32 0 2 0 C1.67 2.31 1.34 4.62 1 7 C-0.32 7 -1.64 7 -3 7 C-2.25 2.25 -2.25 2.25 0 0 Z " fill="#0D1520" transform="translate(146,88)"/>
<path d="M0 0 C2.74576271 4.11864407 2.74576271 4.11864407 3 7 C1.5625 9.75 1.5625 9.75 0 12 C-1.31157516 9.37684968 -0.89649988 7.76966564 -0.5625 4.875 C-0.46066406 3.96492188 -0.35882813 3.05484375 -0.25390625 2.1171875 C-0.17011719 1.41851562 -0.08632812 0.71984375 0 0 Z " fill="#3A5F95" transform="translate(113,89)"/>
</svg>
